<svg width="33" height="33" viewBox="0 0 33 33" fill="none" xmlns="http://www.w3.org/2000/svg">
<rect x="5" y="5" width="23" height="23" rx="5" fill="#28A745"/>
<path d="M21 31.5C21 30.6716 21.6716 30 22.5 30H25.5C27.9853 30 30 27.9853 30 25.5V22.5C30 21.6716 30.6716 21 31.5 21C32.3284 21 33 21.6716 33 22.5V28C33 30.7614 30.7614 33 28 33H22.5C21.6716 33 21 32.3284 21 31.5Z" fill="#28A745"/>
<path d="M31.5 12C30.6716 12 30 11.3284 30 10.5L30 7.5C30 5.01472 27.9853 3 25.5 3L22.5 3C21.6716 3 21 2.32843 21 1.5C21 0.671573 21.6716 -9.8303e-07 22.5 -1.01924e-06L28 -3.0598e-07C30.7614 -4.26685e-07 33 2.23858 33 5L33 10.5C33 11.3284 32.3284 12 31.5 12Z" fill="#28A745"/>
<path d="M12 1.5C12 2.32843 11.3284 3 10.5 3L7.5 3C5.01472 3 3 5.01472 3 7.5L3 10.5C3 11.3284 2.32843 12 1.5 12C0.671572 12 -1.01239e-06 11.3284 -1.08481e-06 10.5L-6.11959e-07 5C-8.53371e-07 2.23858 2.23857 2.76072e-06 5 2.51931e-06L10.5 2.03848e-06C11.3284 1.96606e-06 12 0.671575 12 1.5Z" fill="#28A745"/>
<path d="M1.5 21C2.32843 21 3 21.6716 3 22.5L3 25.5C3 27.9853 5.01472 30 7.5 30L10.5 30C11.3284 30 12 30.6716 12 31.5C12 32.3284 11.3284 33 10.5 33L5 33C2.23858 33 -4.26685e-07 30.7614 -3.0598e-07 28L-6.55671e-08 22.5C-2.93554e-08 21.6716 0.671573 21 1.5 21Z" fill="#28A745"/>
</svg>
